<svg width="70" height="61" viewBox="0 0 70 61" fill="none" xmlns="http://www.w3.org/2000/svg">
<path d="M36.6364 14.9524L36.7287 14.9799L36.7327 14.9753C37.1703 15.0546 37.6045 14.7926 37.7331 14.3585C38.9047 10.4217 42.5958 7.67158 46.7082 7.67158C47.1951 7.67158 47.59 7.2767 47.59 6.78984C47.59 6.30297 47.1951 5.90811 46.7082 5.90811C41.6541 5.90811 37.4069 9.27319 36.0432 13.8559C35.904 14.3227 36.1699 14.8132 36.6364 14.9524Z" fill="#5E81A1" stroke="#F9FFF9" stroke-width="0.3"/>
<path d="M56.9522 42.645H52.5618C52.1578 42.645 51.8301 42.3173 51.8301 41.9132C51.8301 41.5092 52.1578 41.1815 52.5618 41.1815H56.9522C63.004 41.1815 67.9281 36.2574 67.9281 30.2055C67.9281 24.1536 63.004 19.2296 56.9522 19.2296H56.8466C56.6344 19.2296 56.4326 19.1376 56.2936 18.9771C56.1546 18.8167 56.0918 18.604 56.1222 18.3938C56.1875 17.9381 56.2204 17.4802 56.2204 17.0344C56.2204 11.7895 51.9528 7.52185 46.7079 7.52185C44.6674 7.52185 42.7215 8.1595 41.0803 9.36632C40.7196 9.63132 40.2074 9.51372 39.9989 9.11701C35.3509 0.266242 23.2107 -0.922326 16.9166 6.77707C14.2652 10.0207 13.2234 14.2402 14.0582 18.3526C14.1502 18.8068 13.8026 19.2301 13.3411 19.2301H13.0479C6.996 19.2301 2.07193 24.1542 2.07193 30.2061C2.07193 36.258 6.996 41.182 13.0479 41.182H17.4382C17.8422 41.182 18.1699 41.5098 18.1699 41.9138C18.1699 42.3178 17.8422 42.6455 17.4382 42.6455H13.0479C6.1889 42.6455 0.608398 37.065 0.608398 30.206C0.608398 23.5395 5.87995 18.0807 12.4735 17.7797C11.8541 13.5131 13.0385 9.20949 15.7835 5.85092C22.5222 -2.39306 35.4364 -1.46902 40.8955 7.72362C42.6371 6.63176 44.6299 6.05898 46.7076 6.05898C53.0622 6.05898 58.0976 11.4675 57.657 17.7865C64.1897 18.1529 69.3913 23.5828 69.3913 30.2055C69.3913 37.065 63.8108 42.645 56.9518 42.645L56.9522 42.645Z" fill="#5E81A1"/>
<path d="M16.4584 41.5C16.4584 51.67 24.7321 59.9435 34.9019 59.9435C45.0718 59.9435 53.3454 51.6698 53.3454 41.5C53.3454 31.3301 45.0718 23.0565 34.9019 23.0565C24.7319 23.0565 16.4584 31.3302 16.4584 41.5ZM18.2222 41.5C18.2222 32.3031 25.7048 24.8203 34.9019 24.8203C44.0988 24.8203 51.5816 32.303 51.5816 41.5C51.5816 50.6969 44.0988 58.1797 34.9019 58.1797C25.705 58.1797 18.2222 50.697 18.2222 41.5Z" fill="#5E81A1" stroke="#F9FFF9" stroke-width="0.3"/>
<path d="M34.5512 48.8642C34.5512 49.2428 34.8583 49.5499 35.2369 49.5499C35.6154 49.5499 35.9226 49.2433 35.9226 48.8642V34.9356C35.9226 34.557 35.6155 34.2499 35.2369 34.2499C34.8582 34.2499 34.5512 34.557 34.5512 34.9356V48.8642Z" fill="#5E81A1" stroke="#2F5572" stroke-width="0.3"/>
<path d="M35.2365 35.9067L31.4358 39.7074L35.2365 35.9067ZM35.2365 35.9067L39.0373 39.7075C39.171 39.8412 39.347 39.9083 39.5221 39.9083L35.2365 35.9067ZM30.466 39.7075C30.7338 39.9753 31.1681 39.9754 31.4357 39.7075L39.5222 39.9083C39.697 39.9083 39.8731 39.8418 40.0071 39.7074C40.2749 39.4395 40.2749 39.0055 40.007 38.7377L35.7214 34.452C35.4536 34.1842 35.0192 34.1841 34.7516 34.452C34.7516 34.4521 34.7515 34.4521 34.7515 34.4521L30.466 38.7377C30.1981 39.0056 30.1981 39.4396 30.466 39.7075Z" fill="#5E81A1" stroke="#2F5572" stroke-width="0.3"/>
</svg>
